<?xml version="1.0" encoding="UTF-8" standalone="no"?>
<!DOCTYPE svg PUBLIC "-//W3C//DTD SVG 1.1//EN"
 "http://www.w3.org/Graphics/SVG/1.1/DTD/svg11.dtd">
<!-- Generated by graphviz version 2.44.1 (20200629.0846)
 -->
<!-- Title: controllers_diagram Pages: 1 -->
<svg width="398pt" height="343pt"
 viewBox="0.00 0.00 398.00 343.00" xmlns="http://www.w3.org/2000/svg" xmlns:xlink="http://www.w3.org/1999/xlink">
<g id="graph0" class="graph" transform="scale(1 1) rotate(0) translate(4 339)">
<title>controllers_diagram</title>
<polygon fill="transparent" stroke="transparent" points="-4,4 -4,-339 394,-339 394,4 -4,4"/>
<!-- _diagram_info -->
<g id="node1" class="node">
<title>_diagram_info</title>
<text text-anchor="start" x="184" y="-111.6" font-family="Times,serif" font-size="13.00">Controllers diagram</text>
<text text-anchor="start" x="184" y="-97.6" font-family="Times,serif" font-size="13.00">Date: Sep 21 2020 &#45; 23:26</text>
<text text-anchor="start" x="184" y="-83.6" font-family="Times,serif" font-size="13.00">Migration version: 20200917173526</text>
<text text-anchor="start" x="184" y="-69.6" font-family="Times,serif" font-size="13.00">Generated by RailRoady 1.5.3</text>
<text text-anchor="start" x="184" y="-55.6" font-family="Times,serif" font-size="13.00">http://railroady.prestonlee.com</text>
</g>
<!-- ApplicationController -->
<g id="node2" class="node">
<title>ApplicationController</title>
<path fill="none" stroke="black" d="M12,-240.5C12,-240.5 124,-240.5 124,-240.5 130,-240.5 136,-246.5 136,-252.5 136,-252.5 136,-322.5 136,-322.5 136,-328.5 130,-334.5 124,-334.5 124,-334.5 12,-334.5 12,-334.5 6,-334.5 0,-328.5 0,-322.5 0,-322.5 0,-252.5 0,-252.5 0,-246.5 6,-240.5 12,-240.5"/>
<text text-anchor="middle" x="68" y="-319.3" font-family="Times,serif" font-size="14.00">ApplicationController</text>
<polyline fill="none" stroke="black" points="0,-311.5 136,-311.5 "/>
<polyline fill="none" stroke="black" points="0,-287.5 136,-287.5 "/>
<polyline fill="none" stroke="black" points="0,-263.5 136,-263.5 "/>
<text text-anchor="start" x="8" y="-248.3" font-family="Times,serif" font-size="14.00">_layout</text>
</g>
<!-- PostsController -->
<g id="node3" class="node">
<title>PostsController</title>
<path fill="none" stroke="black" d="M60,-0.5C60,-0.5 137,-0.5 137,-0.5 143,-0.5 149,-6.5 149,-12.5 149,-12.5 149,-201.5 149,-201.5 149,-207.5 143,-213.5 137,-213.5 137,-213.5 60,-213.5 60,-213.5 54,-213.5 48,-207.5 48,-201.5 48,-201.5 48,-12.5 48,-12.5 48,-6.5 54,-0.5 60,-0.5"/>
<text text-anchor="middle" x="98.5" y="-198.3" font-family="Times,serif" font-size="14.00">PostsController</text>
<polyline fill="none" stroke="black" points="48,-190.5 149,-190.5 "/>
<text text-anchor="start" x="56" y="-175.3" font-family="Times,serif" font-size="14.00">create</text>
<text text-anchor="start" x="56" y="-160.3" font-family="Times,serif" font-size="14.00">destroy</text>
<text text-anchor="start" x="56" y="-145.3" font-family="Times,serif" font-size="14.00">edit</text>
<text text-anchor="start" x="56" y="-130.3" font-family="Times,serif" font-size="14.00">index</text>
<text text-anchor="start" x="56" y="-115.3" font-family="Times,serif" font-size="14.00">new</text>
<text text-anchor="start" x="56" y="-100.3" font-family="Times,serif" font-size="14.00">show</text>
<text text-anchor="start" x="56" y="-85.3" font-family="Times,serif" font-size="14.00">update</text>
<polyline fill="none" stroke="black" points="48,-77.5 149,-77.5 "/>
<polyline fill="none" stroke="black" points="48,-53.5 149,-53.5 "/>
<text text-anchor="start" x="56" y="-38.3" font-family="Times,serif" font-size="14.00">_layout</text>
<text text-anchor="start" x="56" y="-23.3" font-family="Times,serif" font-size="14.00">post_params</text>
<text text-anchor="start" x="56" y="-8.3" font-family="Times,serif" font-size="14.00">set_post</text>
</g>
<!-- RegistrationsController -->
<g id="node4" class="node">
<title>RegistrationsController</title>
<path fill="none" stroke="black" d="M188,-160.5C188,-160.5 307,-160.5 307,-160.5 313,-160.5 319,-166.5 319,-172.5 319,-172.5 319,-272.5 319,-272.5 319,-278.5 313,-284.5 307,-284.5 307,-284.5 188,-284.5 188,-284.5 182,-284.5 176,-278.5 176,-272.5 176,-272.5 176,-172.5 176,-172.5 176,-166.5 182,-160.5 188,-160.5"/>
<text text-anchor="middle" x="247.5" y="-269.3" font-family="Times,serif" font-size="14.00">RegistrationsController</text>
<polyline fill="none" stroke="black" points="176,-261.5 319,-261.5 "/>
<polyline fill="none" stroke="black" points="176,-237.5 319,-237.5 "/>
<polyline fill="none" stroke="black" points="176,-213.5 319,-213.5 "/>
<text text-anchor="start" x="184" y="-198.3" font-family="Times,serif" font-size="14.00">_layout</text>
<text text-anchor="start" x="184" y="-183.3" font-family="Times,serif" font-size="14.00">acount_update_params</text>
<text text-anchor="start" x="184" y="-168.3" font-family="Times,serif" font-size="14.00">sign_up_params</text>
</g>
</g>
</svg>
