<?xml version="1.0" encoding="UTF-8" standalone="no"?>
<!DOCTYPE svg PUBLIC "-//W3C//DTD SVG 1.1//EN"
 "http://www.w3.org/Graphics/SVG/1.1/DTD/svg11.dtd">
<!-- Generated by graphviz version 2.44.1 (20200629.0846)
 -->
<!-- Title: models_diagram Pages: 1 -->
<svg width="612pt" height="348pt"
 viewBox="0.00 0.00 612.00 348.00" xmlns="http://www.w3.org/2000/svg" xmlns:xlink="http://www.w3.org/1999/xlink">
<g id="graph0" class="graph" transform="scale(1 1) rotate(0) translate(4 344)">
<title>models_diagram</title>
<polygon fill="transparent" stroke="transparent" points="-4,4 -4,-344 608,-344 608,4 -4,4"/>
<!-- _diagram_info -->
<g id="node1" class="node">
<title>_diagram_info</title>
<text text-anchor="start" x="8" y="-266.1" font-family="Times,serif" font-size="13.00">Models diagram</text>
<text text-anchor="start" x="8" y="-252.1" font-family="Times,serif" font-size="13.00">Date: Sep 21 2020 &#45; 23:26</text>
<text text-anchor="start" x="8" y="-238.1" font-family="Times,serif" font-size="13.00">Migration version: 20200917173526</text>
<text text-anchor="start" x="8" y="-224.1" font-family="Times,serif" font-size="13.00">Generated by RailRoady 1.5.3</text>
<text text-anchor="start" x="8" y="-210.1" font-family="Times,serif" font-size="13.00">http://railroady.prestonlee.com</text>
</g>
<!-- ApplicationRecord -->
<g id="node2" class="node">
<title>ApplicationRecord</title>
<ellipse fill="none" stroke="black" cx="309" cy="-241.5" rx="77.19" ry="18"/>
<text text-anchor="middle" x="309" y="-237.8" font-family="Times,serif" font-size="14.00">ApplicationRecord</text>
</g>
<!-- Post -->
<g id="node3" class="node">
<title>Post</title>
<path fill="none" stroke="black" d="M450.5,-0.5C450.5,-0.5 557.5,-0.5 557.5,-0.5 563.5,-0.5 569.5,-6.5 569.5,-12.5 569.5,-12.5 569.5,-94.5 569.5,-94.5 569.5,-100.5 563.5,-106.5 557.5,-106.5 557.5,-106.5 450.5,-106.5 450.5,-106.5 444.5,-106.5 438.5,-100.5 438.5,-94.5 438.5,-94.5 438.5,-12.5 438.5,-12.5 438.5,-6.5 444.5,-0.5 450.5,-0.5"/>
<text text-anchor="middle" x="504" y="-91.3" font-family="Times,serif" font-size="14.00">Post</text>
<polyline fill="none" stroke="black" points="438.5,-83.5 569.5,-83.5 "/>
<text text-anchor="start" x="446.5" y="-68.3" font-family="Times,serif" font-size="14.00">id :integer</text>
<text text-anchor="start" x="446.5" y="-53.3" font-family="Times,serif" font-size="14.00">post :text</text>
<text text-anchor="start" x="446.5" y="-38.3" font-family="Times,serif" font-size="14.00">created_at :datetime</text>
<text text-anchor="start" x="446.5" y="-23.3" font-family="Times,serif" font-size="14.00">updated_at :datetime</text>
<text text-anchor="start" x="446.5" y="-8.3" font-family="Times,serif" font-size="14.00">user_id :integer</text>
</g>
<!-- User -->
<g id="node4" class="node">
<title>User</title>
<path fill="none" stroke="black" d="M416,-143.5C416,-143.5 592,-143.5 592,-143.5 598,-143.5 604,-149.5 604,-155.5 604,-155.5 604,-327.5 604,-327.5 604,-333.5 598,-339.5 592,-339.5 592,-339.5 416,-339.5 416,-339.5 410,-339.5 404,-333.5 404,-327.5 404,-327.5 404,-155.5 404,-155.5 404,-149.5 410,-143.5 416,-143.5"/>
<text text-anchor="middle" x="504" y="-324.3" font-family="Times,serif" font-size="14.00">User</text>
<polyline fill="none" stroke="black" points="404,-316.5 604,-316.5 "/>
<text text-anchor="start" x="412" y="-301.3" font-family="Times,serif" font-size="14.00">admin :boolean</text>
<text text-anchor="start" x="412" y="-286.3" font-family="Times,serif" font-size="14.00">email :varchar</text>
<text text-anchor="start" x="412" y="-271.3" font-family="Times,serif" font-size="14.00">encrypted_password :varchar</text>
<text text-anchor="start" x="412" y="-256.3" font-family="Times,serif" font-size="14.00">reset_password_token :varchar</text>
<text text-anchor="start" x="412" y="-241.3" font-family="Times,serif" font-size="14.00">reset_password_sent_at :datetime</text>
<text text-anchor="start" x="412" y="-226.3" font-family="Times,serif" font-size="14.00">remember_created_at :datetime</text>
<text text-anchor="start" x="412" y="-211.3" font-family="Times,serif" font-size="14.00">created_at :datetime</text>
<text text-anchor="start" x="412" y="-196.3" font-family="Times,serif" font-size="14.00">updated_at :datetime</text>
<text text-anchor="start" x="412" y="-181.3" font-family="Times,serif" font-size="14.00">name :varchar</text>
<text text-anchor="start" x="412" y="-166.3" font-family="Times,serif" font-size="14.00">username :varchar</text>
<text text-anchor="start" x="412" y="-151.3" font-family="Times,serif" font-size="14.00">id :integer</text>
</g>
<!-- User&#45;&gt;Post -->
<g id="edge1" class="edge">
<title>User&#45;&gt;Post</title>
<path fill="none" stroke="#451ccf" d="M504,-135.41C504,-129.04 504,-122.75 504,-116.66"/>
<ellipse fill="none" stroke="#451ccf" cx="504" cy="-139.41" rx="4" ry="4"/>
<polygon fill="#451ccf" stroke="#451ccf" points="504,-116.61 508.5,-106.61 504,-111.61 504,-106.61 504,-106.61 504,-106.61 504,-111.61 499.5,-106.61 504,-116.61 504,-116.61"/>
</g>
</g>
</svg>
