<?xml version="1.0" encoding="UTF-8" standalone="no"?>
<!DOCTYPE svg PUBLIC "-//W3C//DTD SVG 1.1//EN"
 "http://www.w3.org/Graphics/SVG/1.1/DTD/svg11.dtd">
<!-- Generated by graphviz version 2.44.1 (20200629.0846)
 -->
<!-- Title: models_diagram Pages: 1 -->
<svg width="467pt" height="158pt"
 viewBox="0.00 0.00 467.30 158.00" xmlns="http://www.w3.org/2000/svg" xmlns:xlink="http://www.w3.org/1999/xlink">
<g id="graph0" class="graph" transform="scale(1 1) rotate(0) translate(4 154)">
<title>models_diagram</title>
<polygon fill="transparent" stroke="transparent" points="-4,4 -4,-154 463.3,-154 463.3,4 -4,4"/>
<!-- _diagram_info -->
<g id="node1" class="node">
<title>_diagram_info</title>
<text text-anchor="start" x="8" y="-135.6" font-family="Times,serif" font-size="13.00">Models diagram</text>
<text text-anchor="start" x="8" y="-121.6" font-family="Times,serif" font-size="13.00">Date: Sep 21 2020 &#45; 23:26</text>
<text text-anchor="start" x="8" y="-107.6" font-family="Times,serif" font-size="13.00">Migration version: 20200917173526</text>
<text text-anchor="start" x="8" y="-93.6" font-family="Times,serif" font-size="13.00">Generated by RailRoady 1.5.3</text>
<text text-anchor="start" x="8" y="-79.6" font-family="Times,serif" font-size="13.00">http://railroady.prestonlee.com</text>
</g>
<!-- ApplicationRecord -->
<g id="node2" class="node">
<title>ApplicationRecord</title>
<ellipse fill="none" stroke="black" cx="309" cy="-111" rx="77.19" ry="18"/>
<text text-anchor="middle" x="309" y="-107.3" font-family="Times,serif" font-size="14.00">ApplicationRecord</text>
</g>
<!-- Post -->
<g id="node3" class="node">
<title>Post</title>
<ellipse fill="none" stroke="black" cx="432" cy="-18" rx="27" ry="18"/>
<text text-anchor="middle" x="432" y="-14.3" font-family="Times,serif" font-size="14.00">Post</text>
</g>
<!-- User -->
<g id="node4" class="node">
<title>User</title>
<ellipse fill="none" stroke="black" cx="432" cy="-111" rx="27.1" ry="18"/>
<text text-anchor="middle" x="432" y="-107.3" font-family="Times,serif" font-size="14.00">User</text>
</g>
<!-- User&#45;&gt;Post -->
<g id="edge1" class="edge">
<title>User&#45;&gt;Post</title>
<path fill="none" stroke="#a3f042" d="M432,-84.73C432,-72.72 432,-58.36 432,-46.13"/>
<ellipse fill="none" stroke="#a3f042" cx="432" cy="-88.88" rx="4" ry="4"/>
<polygon fill="#a3f042" stroke="#a3f042" points="432,-46.04 436.5,-36.04 432,-41.04 432,-36.04 432,-36.04 432,-36.04 432,-41.04 427.5,-36.04 432,-46.04 432,-46.04"/>
</g>
</g>
</svg>
